#!OML:ASF F:\VICON\USERDATA\INSTALL\rory3\rory3.ASF
:FULLY-SPECIFIED
:DEGREES
1192
root 0.582241 17.519 2.67861 3.29984 5.35534 -3.16168
lowerback 8.96534 3.09518 1.44356
upperback 2.02646 4.3983 4.18909
thorax -3.1377 2.19001 3.02361
lowerneck -33.602 -9.4664 -9.22473
upperneck 5.58166 -10.5578 12.6759
head 8.09568 -3.87316 4.13365
rclavicle -2.68359e-014 1.27222e-014
rhumerus 47.5249 -40.2133 -62.9976
rradius 49.7046
rwrist 18.9097
rhand -62.9093 -27.7996
rfingers 7.12502
rthumb -34.9169 -54.375
lclavicle -2.68359e-014 1.27222e-014
lhumerus -35.7497 7.06229 74.18
lradius 44.1321
lwrist -4.89381
lhand -18.7947 24.1947
lfingers 7.12502
lthumb 7.50328 54.0416
rfemur -11.9321 -4.48035 12.9604
rtibia 30.3552
rfoot -18.1265 -6.6436
rtoes -2.73354
lfemur -18.0225 -4.25891 -11.8367
ltibia 36.2468
lfoot -18.2473 -1.77124
ltoes -19.6818
1193
root 0.602384 17.5145 2.67964 3.14616 5.80534 -3.39555
lowerback 8.83001 3.12287 1.41844
upperback 2.048 4.42572 4.14442
thorax -3.03979 2.20426 2.99571
lowerneck -33.4739 -9.37097 -9.10658
upperneck 5.41497 -10.419 12.3741
head 7.97443 -3.84511 4.03718
rclavicle -9.93923e-016 -2.38542e-015
rhumerus 47.8914 -39.7373 -63.0816
rradius 49.9324
rwrist 18.6627
rhand -63.3364 -28.0754
rfingers 7.12502
rthumb -35.322 -54.5557
lclavicle -9.93923e-016 -2.38542e-015
lhumerus -35.7682 6.99192 74.2581
lradius 44.3226
lwrist -4.42989
lhand -19.2914 23.0009
lfingers 7.12502
lthumb 7.02389 52.8643
rfemur -11.5507 -4.58317 13.1532
rtibia 30.0978
rfoot -18.1902 -6.88849
rtoes -3.0597
lfemur -18.0963 -4.35848 -11.6241
ltibia 36.4251
lfoot -18.3266 -2.17031
ltoes -19.5114
1194
root 0.621889 17.5085 2.67772 3.03894 6.29295 -3.54545
lowerback 8.63348 3.19823 1.20148
upperback 2.10917 4.49886 4.17208
thorax -2.88952 2.24324 3.14969
lowerneck -33.1899 -9.34508 -9.23774
upperneck 5.11173 -10.2937 12.2079
head 7.81012 -3.82365 4.02588
rclavicle -5.20816e-014 -4.05521e-014
rhumerus 48.5826 -39.4127 -63.2172
rradius 49.9517
rwrist 19.0628
rhand -63.5428 -28.4158
rfingers 7.12502
rthumb -35.5177 -54.8494
lclavicle -5.20816e-014 -4.05521e-014
lhumerus -35.6857 7.01335 74.5004
lradius 44.5409
lwrist -4.32322
lhand -19.0728 22.7106
lfingers 7.12502
lthumb 7.23491 52.5669
rfemur -11.2282 -4.67261 13.2641
rtibia 29.8903
rfoot -18.2467 -7.15872
rtoes -3.39786
lfemur -18.2107 -4.55808 -11.4853
ltibia 36.5573
lfoot -18.368 -2.60272
ltoes -19.1755
1195
root 0.63966 17.5114 2.67693 2.95987 6.69906 -3.67491
lowerback 8.50956 3.31254 1.02547
upperback 2.14974 4.62797 4.10483
thorax -2.7933 2.30879 3.17152
lowerneck -33.1263 -9.34592 -9.36467
upperneck 5.09908 -10.2261 12.0963
head 7.78617 -3.80818 4.01973
rclavicle 4.4329e-014 1.11319e-014
rhumerus 49.2692 -39.1709 -63.4775
rradius 50.0229
rwrist 19.4375
rhand -63.4303 -28.0799
rfingers 7.12502
rthumb -35.411 -54.539
lclavicle 4.4329e-014 1.11319e-014
lhumerus -35.584 7.05738 74.5943
lradius 44.7645
lwrist -4.47726
lhand -18.6668 23.8169
lfingers 7.12502
lthumb 7.62675 53.6594
rfemur -10.9879 -4.67748 13.3549
rtibia 29.7181
rfoot -18.3074 -7.57656
rtoes -4.2865
lfemur -18.3095 -4.59967 -11.3953
ltibia 36.6544
lfoot -18.3925 -3.00586
ltoes -19.2204
1196
root 0.656424 17.5111 2.67791 2.9217 7.15326 -3.74227
lowerback 8.37911 3.37495 0.893874
upperback 2.14092 4.68893 3.89241
thorax -2.72568 2.33942 3.02472
lowerneck -33.1278 -9.34727 -9.45953
upperneck 5.15781 -10.2094 12.1984
head 7.81775 -3.78926 4.07287
rclavicle -3.99557e-014 -7.95139e-016
rhumerus 49.8079 -38.9016 -63.8764
rradius 50.1659
rwrist 19.7205
rhand -63.2282 -27.3951
rfingers 7.12502
rthumb -35.2194 -53.8997
lclavicle -3.99557e-014 -7.95139e-016
lhumerus -35.4878 7.08138 74.4221
lradius 44.9379
lwrist -4.75315
lhand -17.9642 25.3013
lfingers 7.12502
lthumb 8.30486 55.1181
rfemur -10.7633 -4.76945 13.374
rtibia 29.5444
rfoot -18.3523 -7.85756
rtoes -4.41263
lfemur -18.4113 -4.67068 -11.3723
ltibia 36.7437
lfoot -18.4316 -3.34338
ltoes -18.6001
1197
root 0.672189 17.5053 2.68071 2.84339 7.60597 -3.89507
lowerback 8.24076 3.43397 0.831214
upperback 2.09622 4.75447 3.72251
thorax -2.68898 2.37228 2.88288
lowerneck -32.764 -9.37323 -9.61093
upperneck 4.94568 -10.2055 12.2703
head 7.70866 -3.80053 4.12553
rclavicle 2.0276e-014 -9.54166e-015
rhumerus 50.2648 -38.5275 -64.1583
rradius 50.2299
rwrist 20.0875
rhand -63.3631 -27.5449
rfingers 7.12502
rthumb -35.3473 -54.0191
lclavicle 2.0276e-014 -9.54166e-015
lhumerus -35.5354 6.97738 74.2904
lradius 45.2053
lwrist -4.62734
lhand -17.6507 25.8019
lfingers 7.12502
lthumb 8.60742 55.6064
rfemur -10.4692 -4.93321 13.4871
rtibia 29.335
rfoot -18.3934 -7.98543
rtoes -3.98087
lfemur -18.5078 -4.76324 -11.2438
ltibia 36.8613
lfoot -18.5125 -3.70604
ltoes -16.0871
1198
root 0.686318 17.5048 2.68266 2.75039 7.99437 -4.16325
lowerback 8.16268 3.5082 0.863229
upperback 2.08038 4.85024 3.59537
thorax -2.65281 2.41954 2.72719
lowerneck -32.6597 -9.37518 -9.5142
upperneck 4.86379 -10.1995 11.9836
head 7.63753 -3.82933 4.01374
rclavicle 1.39149e-015 -4.77083e-015
rhumerus 50.8503 -38.1133 -64.4354
rradius 50.2947
rwrist 20.253
rhand -63.3876 -27.0484
rfingers 7.12502
rthumb -35.3705 -53.5171
lclavicle 1.39149e-015 -4.77083e-015
lhumerus -35.5109 6.95695 74.2198
lradius 45.3864
lwrist -4.41133
lhand -17.798 25.3809
lfingers 7.12502
lthumb 8.46523 55.1913
rfemur -10.1828 -4.96662 13.7514
rtibia 29.1031
rfoot -18.5667 -8.32379
rtoes -4.25105
lfemur -18.6774 -4.85515 -10.975
ltibia 37.02
lfoot -18.5478 -4.08986
ltoes -17.9856
